<?xml version="1.0" standalone="no"?><!DOCTYPE svg PUBLIC "-//W3C//DTD SVG 1.1//EN" "http://www.w3.org/Graphics/SVG/1.1/DTD/svg11.dtd"><svg t="1682407717777" class="icon" viewBox="0 0 1024 1024" version="1.1" xmlns="http://www.w3.org/2000/svg" p-id="1806" width="256" height="256" xmlns:xlink="http://www.w3.org/1999/xlink"><path d="M828.949973 487.617843h48.764313v48.760701h-48.764313zM828.949973 97.525014h48.764313v48.7607h-48.764313zM780.189272 536.378544h48.760701v48.764313h-48.760701z" fill="#09111F" p-id="1807"></path><path d="M780.189272 487.617843h48.760701v48.760701h-48.760701z" fill="#FEAE32" p-id="1808"></path><path d="M780.189272 438.857143h48.760701v48.7607h-48.760701zM780.189272 146.285714h48.760701v48.760701h-48.760701z" fill="#09111F" p-id="1809"></path><path d="M780.189272 97.525014h48.760701v48.7607h-48.760701z" fill="#FEAE32" p-id="1810"></path><path d="M780.189272 48.760701h48.760701v48.764313h-48.760701zM731.428571 585.142857h48.760701v48.760701h-48.760701z" fill="#09111F" p-id="1811"></path><path d="M731.428571 536.378544h48.760701v48.764313h-48.760701zM731.428571 487.617843h48.760701v48.760701h-48.760701z" fill="#FEAE32" p-id="1812"></path><path d="M731.428571 438.857143h48.760701v48.7607h-48.760701zM731.428571 195.046415h48.760701v48.764313h-48.760701z" fill="#09111F" p-id="1813"></path><path d="M731.428571 146.285714h48.760701v48.760701h-48.760701z" fill="#FEAE32" p-id="1814"></path><path d="M731.428571 97.525014h48.760701v48.7607h-48.760701z" fill="#FEAE32" p-id="1815"></path><path d="M731.428571 48.760701h48.760701v48.764313h-48.760701zM682.664258 633.903558h48.764313v48.7607h-48.764313z" fill="#09111F" p-id="1816"></path><path d="M682.664258 585.142857h48.764313v48.760701h-48.764313zM682.664258 536.378544h48.764313v48.764313h-48.764313zM682.664258 487.617843h48.764313v48.760701h-48.764313z" fill="#FEAE32" p-id="1817"></path><path d="M682.664258 438.857143h48.764313v48.7607h-48.764313zM682.664258 243.810728h48.764313V292.571429h-48.764313z" fill="#09111F" p-id="1818"></path><path d="M682.664258 195.046415h48.764313v48.764313h-48.764313zM682.664258 146.285714h48.764313v48.760701h-48.764313z" fill="#FEAE32" p-id="1819"></path><path d="M682.664258 97.525014h48.764313v48.7607h-48.764313z" fill="#FEAE32" p-id="1820"></path><path d="M682.664258 48.760701h48.764313v48.764313h-48.764313zM633.903558 633.903558h48.7607v48.7607h-48.7607z" fill="#09111F" p-id="1821"></path><path d="M633.903558 585.142857h48.7607v48.760701h-48.7607zM633.903558 536.378544h48.7607v48.764313h-48.7607zM633.903558 487.617843h48.7607v48.760701h-48.7607z" fill="#FEAE32" p-id="1822"></path><path d="M633.903558 438.857143h48.7607v48.7607h-48.7607zM633.903558 292.571429h48.7607v48.7607h-48.7607z" fill="#09111F" p-id="1823"></path><path d="M633.903558 243.810728h48.7607V292.571429h-48.7607zM633.903558 195.046415h48.7607v48.764313h-48.7607zM633.903558 146.285714h48.7607v48.760701h-48.7607z" fill="#FEAE32" p-id="1824"></path><path d="M633.903558 97.525014h48.7607v48.7607h-48.7607z" fill="#FEAE32" p-id="1825"></path><path d="M633.903558 48.760701h48.7607v48.764313h-48.7607zM585.142857 682.664258h48.760701v48.764313H585.142857z" fill="#09111F" p-id="1826"></path><path d="M585.142857 633.903558h48.760701v48.7607H585.142857zM585.142857 585.142857h48.760701v48.760701H585.142857z" fill="#FEAE32" p-id="1827"></path><path d="M585.142857 536.378544h48.760701v48.764313H585.142857z" fill="#FFFFFF" p-id="1828"></path><path d="M585.142857 487.617843h48.760701v48.760701H585.142857z" fill="#FEAE32" p-id="1829"></path><path d="M585.142857 438.857143h48.760701v48.7607H585.142857zM585.142857 341.332129h48.760701v48.764313H585.142857z" fill="#09111F" p-id="1830"></path><path d="M585.142857 292.571429h48.760701v48.7607H585.142857zM585.142857 243.810728h48.760701V292.571429H585.142857zM585.142857 195.046415h48.760701v48.764313H585.142857zM585.142857 146.285714h48.760701v48.760701H585.142857z" fill="#FEAE32" p-id="1831"></path><path d="M585.142857 97.525014h48.760701v48.7607H585.142857z" fill="#FEAE32" p-id="1832"></path><path d="M585.142857 48.760701h48.760701v48.764313H585.142857zM536.378544 731.428571h48.764313v48.760701h-48.764313z" fill="#09111F" p-id="1833"></path><path d="M536.378544 682.664258h48.764313v48.764313h-48.764313zM536.378544 633.903558h48.764313v48.7607h-48.764313zM536.378544 585.142857h48.764313v48.760701h-48.764313zM536.378544 536.378544h48.764313v48.764313h-48.764313zM536.378544 487.617843h48.764313v48.760701h-48.764313zM536.378544 438.857143h48.764313v48.7607h-48.764313z" fill="#FEAE32" p-id="1834"></path><path d="M536.378544 390.096442h48.764313v48.760701h-48.764313z" fill="#09111F" p-id="1835"></path><path d="M536.378544 341.332129h48.764313v48.764313h-48.764313zM536.378544 292.571429h48.764313v48.7607h-48.764313zM536.378544 243.810728h48.764313V292.571429h-48.764313zM536.378544 195.046415h48.764313v48.764313h-48.764313z" fill="#FEAE32" p-id="1836"></path><path d="M536.378544 146.285714h48.764313v48.760701h-48.764313z" fill="#FCDE56" p-id="1837"></path><path d="M536.378544 97.525014h48.764313v48.7607h-48.764313z" fill="#FCDE56" p-id="1838"></path><path d="M536.378544 48.760701h48.764313v48.764313h-48.764313zM487.617843 780.189272h48.760701v48.760701h-48.760701z" fill="#09111F" p-id="1839"></path><path d="M487.617843 731.428571h48.760701v48.760701h-48.760701z" fill="#FFFFFF" p-id="1840"></path><path d="M487.617843 682.664258h48.760701v48.764313h-48.760701z" fill="#FCDE56" p-id="1841"></path><path d="M487.617843 633.903558h48.760701v48.7607h-48.760701zM487.617843 585.142857h48.760701v48.760701h-48.760701zM487.617843 536.378544h48.760701v48.764313h-48.760701z" fill="#FEAE32" p-id="1842"></path><path d="M487.617843 487.617843h48.760701v48.760701h-48.760701z" fill="#FFFFFF" p-id="1843"></path><path d="M487.617843 438.857143h48.760701v48.7607h-48.760701zM487.617843 390.096442h48.760701v48.760701h-48.760701zM487.617843 341.332129h48.760701v48.764313h-48.760701zM487.617843 292.571429h48.760701v48.7607h-48.760701z" fill="#FEAE32" p-id="1844"></path><path d="M487.617843 243.810728h48.760701V292.571429h-48.760701zM487.617843 195.046415h48.760701v48.764313h-48.760701zM487.617843 146.285714h48.760701v48.760701h-48.760701z" fill="#FCDE56" p-id="1845"></path><path d="M487.617843 97.525014h48.760701v48.7607h-48.760701z" fill="#C24831" p-id="1846"></path><path d="M487.617843 48.760701h48.760701v48.764313h-48.760701zM438.857143 828.949973h48.7607v48.764313h-48.7607z" fill="#09111F" p-id="1847"></path><path d="M438.857143 780.189272h48.7607v48.760701h-48.7607z" fill="#FEAE32" p-id="1848"></path><path d="M438.857143 731.428571h48.7607v48.760701h-48.7607z" fill="#FCDE56" p-id="1849"></path><path d="M438.857143 682.664258h48.7607v48.764313h-48.7607z" fill="#C24831" p-id="1850"></path><path d="M438.857143 633.903558h48.7607v48.7607h-48.7607z" fill="#09111F" p-id="1851"></path><path d="M438.857143 585.142857h48.7607v48.760701h-48.7607zM438.857143 536.378544h48.7607v48.764313h-48.7607zM438.857143 487.617843h48.7607v48.760701h-48.7607zM438.857143 438.857143h48.7607v48.7607h-48.7607zM438.857143 390.096442h48.7607v48.760701h-48.7607zM438.857143 341.332129h48.7607v48.764313h-48.7607z" fill="#FEAE32" p-id="1852"></path><path d="M438.857143 292.571429h48.7607v48.7607h-48.7607zM438.857143 243.810728h48.7607V292.571429h-48.7607z" fill="#FCDE56" p-id="1853"></path><path d="M438.857143 195.046415h48.7607v48.764313h-48.7607zM438.857143 146.285714h48.7607v48.760701h-48.7607z" fill="#C24831" p-id="1854"></path><path d="M438.857143 97.525014h48.7607v48.7607h-48.7607z" fill="#C24831" p-id="1855"></path><path d="M438.857143 48.760701h48.7607v48.764313h-48.7607zM390.096442 877.714286h48.760701v48.7607h-48.760701z" fill="#09111F" p-id="1856"></path><path d="M390.096442 828.949973h48.760701v48.764313h-48.760701z" fill="#FEAE32" p-id="1857"></path><path d="M390.096442 780.189272h48.760701v48.760701h-48.760701z" fill="#FCDE56" p-id="1858"></path><path d="M390.096442 731.428571h48.760701v48.760701h-48.760701z" fill="#C24831" p-id="1859"></path><path d="M390.096442 682.664258h48.760701v48.764313h-48.760701zM438.857143 585.142857v48.760701H341.332129V585.142857h97.525014z" fill="#09111F" p-id="1860"></path><path d="M390.096442 536.378544h48.760701v48.764313h-48.760701zM390.096442 487.617843h48.760701v48.760701h-48.760701zM390.096442 438.857143h48.760701v48.7607h-48.760701zM390.096442 390.096442h48.760701v48.760701h-48.760701z" fill="#FEAE32" p-id="1861"></path><path d="M390.096442 341.332129h48.760701v48.764313h-48.760701zM390.096442 292.571429h48.760701v48.7607h-48.760701z" fill="#FCDE56" p-id="1862"></path><path d="M390.096442 243.810728h48.760701V292.571429h-48.760701z" fill="#C24831" p-id="1863"></path><path d="M390.096442 195.046415h48.760701v48.764313h-48.760701zM390.096442 146.285714h48.760701v48.760701h-48.760701z" fill="#FFFFFF" p-id="1864"></path><path d="M390.096442 97.525014h48.760701v48.7607h-48.760701z" fill="#C24831" p-id="1865"></path><path d="M390.096442 48.760701h48.760701v48.764313h-48.760701zM341.332129 926.474986h48.764313v48.760701H341.332129z" fill="#09111F" p-id="1866"></path><path d="M341.332129 877.714286h48.764313v48.7607H341.332129z" fill="#FEAE32" p-id="1867"></path><path d="M341.332129 828.949973h48.764313v48.764313H341.332129z" fill="#FCDE56" p-id="1868"></path><path d="M341.332129 780.189272h48.764313v48.760701H341.332129z" fill="#C24831" p-id="1869"></path><path d="M341.332129 731.428571h48.764313v48.760701H341.332129z" fill="#09111F" p-id="1870"></path><path d="M341.332129 536.378544h48.764313v48.764313H341.332129zM341.332129 487.617843h48.764313v48.760701H341.332129z" fill="#FEAE32" p-id="1871"></path><path d="M341.332129 438.857143h48.764313v48.7607H341.332129zM341.332129 390.096442h48.764313v48.760701H341.332129zM341.332129 341.332129h48.764313v48.764313H341.332129z" fill="#FCDE56" p-id="1872"></path><path d="M341.332129 292.571429h48.764313v48.7607H341.332129zM341.332129 243.810728h48.764313V292.571429H341.332129z" fill="#C24831" p-id="1873"></path><path d="M341.332129 195.046415h48.764313v48.764313H341.332129z" fill="#FFFFFF" p-id="1874"></path><path d="M341.332129 146.285714h48.764313v48.760701H341.332129z" fill="#C24831" p-id="1875"></path><path d="M341.332129 97.525014h48.764313v48.7607H341.332129zM292.571429 926.474986h48.7607v48.760701H292.571429z" fill="#09111F" p-id="1876"></path><path d="M292.571429 877.714286h48.7607v48.7607H292.571429z" fill="#C24831" p-id="1877"></path><path d="M292.571429 828.949973h48.7607v48.764313H292.571429zM292.571429 780.189272h48.7607v48.760701H292.571429zM292.571429 585.142857h48.7607v48.760701H292.571429z" fill="#09111F" p-id="1878"></path><path d="M292.571429 536.378544h48.7607v48.764313H292.571429z" fill="#FEAE32" p-id="1879"></path><path d="M292.571429 487.617843h48.7607v48.760701H292.571429zM292.571429 438.857143h48.7607v48.7607H292.571429z" fill="#FCDE56" p-id="1880"></path><path d="M292.571429 390.096442h48.7607v48.760701H292.571429zM292.571429 341.332129h48.7607v48.764313H292.571429zM292.571429 292.571429h48.7607v48.7607H292.571429zM292.571429 243.810728h48.7607V292.571429H292.571429zM292.571429 195.046415h48.7607v48.764313H292.571429z" fill="#C24831" p-id="1881"></path><path d="M292.571429 146.285714h48.7607v48.760701H292.571429zM243.810728 877.714286H292.571429v48.7607H243.810728zM243.810728 585.142857H292.571429v48.760701H243.810728z" fill="#09111F" p-id="1882"></path><path d="M243.810728 536.378544H292.571429v48.764313H243.810728zM243.810728 487.617843H292.571429v48.760701H243.810728z" fill="#FCDE56" p-id="1883"></path><path d="M243.810728 438.857143H292.571429v48.7607H243.810728zM243.810728 390.096442H292.571429v48.760701H243.810728z" fill="#C24831" p-id="1884"></path><path d="M243.810728 341.332129H292.571429v48.764313H243.810728z" fill="#FCDE56" p-id="1885"></path><path d="M243.810728 292.571429H292.571429v48.7607H243.810728zM243.810728 243.810728H292.571429V292.571429H243.810728z" fill="#C24831" p-id="1886"></path><path d="M243.810728 195.046415H292.571429v48.764313H243.810728zM195.046415 585.142857h48.764313v48.760701H195.046415z" fill="#09111F" p-id="1887"></path><path d="M195.046415 536.378544h48.764313v48.764313H195.046415zM195.046415 487.617843h48.764313v48.760701H195.046415z" fill="#C24831" p-id="1888"></path><path d="M195.046415 438.857143h48.764313v48.7607H195.046415z" fill="#FCDE56" p-id="1889"></path><path d="M195.046415 390.096442h48.764313v48.760701H195.046415zM195.046415 341.332129h48.764313v48.764313H195.046415z" fill="#C24831" p-id="1890"></path><path d="M195.046415 292.571429h48.764313v48.7607H195.046415zM195.046415 243.810728h48.764313V292.571429H195.046415zM146.285714 585.142857h48.760701v48.760701H146.285714z" fill="#09111F" p-id="1891"></path><path d="M146.285714 536.378544h48.760701v48.764313H146.285714zM146.285714 487.617843h48.760701v48.760701H146.285714zM146.285714 438.857143h48.760701v48.7607H146.285714z" fill="#C24831" p-id="1892"></path><path d="M146.285714 390.096442h48.760701v48.760701H146.285714zM146.285714 341.332129h48.760701v48.764313H146.285714zM97.525014 585.142857h48.7607v48.760701H97.525014z" fill="#09111F" p-id="1893"></path><path d="M97.525014 536.378544h48.7607v48.764313H97.525014zM97.525014 487.617843h48.7607v48.760701H97.525014z" fill="#C24831" p-id="1894"></path><path d="M97.525014 438.857143h48.7607v48.7607H97.525014zM48.760701 536.378544h48.764313v48.764313H48.760701zM48.760701 487.617843h48.764313v48.760701H48.760701z" fill="#09111F" p-id="1895"></path></svg>